<svg xmlns="http://www.w3.org/2000/svg" xmlns:xlink="http://www.w3.org/1999/xlink" width="316.647" height="246.297" viewBox="0 0 316.647 246.297">
  <defs>
    <linearGradient id="linear-gradient" x1="-5.267" y1="1" x2="-5.267" gradientUnits="objectBoundingBox">
      <stop offset="0" stop-color="gray" stop-opacity="0.251"/>
      <stop offset="0.54" stop-color="gray" stop-opacity="0.122"/>
      <stop offset="1" stop-color="gray" stop-opacity="0.102"/>
    </linearGradient>
  </defs>
  <g id="undraw_alien_science_nonm" transform="translate(0 0.005)">
    <ellipse id="Ellipse_303" data-name="Ellipse 303" cx="38.167" cy="4.97" rx="38.167" ry="4.97" transform="translate(96.561 236.351)" fill="#6c63ff" opacity="0.1"/>
    <path id="Path_1348" data-name="Path 1348" d="M108.015,354.82h29.237v39.852h-27.1c-.07.413-.14.824-.216,1.234h27.316V428.04l-.137-.051c-.776-.318-1.542-.636-2.3-.973l-.493-.223q-1.164-.544-2.3-1.154c-.267-.14-.534-.286-.8-.439a47.932,47.932,0,0,1-11.5-8.949c-.1-.1-.191-.2-.283-.293-.464-.506-.922-1.021-1.367-1.545l-.493-.585c-.522-.636-1.03-1.3-1.52-1.972-.073-.1-.143-.2-.216-.293a42.466,42.466,0,0,1-4.954-8.958c-.041-.1-.076-.2-.114-.3-.4-1.008-.76-2.029-1.072-3.072-.13-.436-.261-.878-.369-1.317-.041-.134-.073-.264-.108-.391-1.619-6.382-1.806-13.016-1.806-19.614v-2.309c0-2.665.032-5.346.076-8.026q.022-1.04.045-2.083c.041-1.768.1-3.539.172-5.307.019-.49.041-.983.067-1.469,0-.283.025-.566.045-.849C107.884,356.852,107.945,355.831,108.015,354.82Z" transform="translate(-105.738 -257.391)" fill="#6c63ff" opacity="0.1"/>
    <path id="Path_1349" data-name="Path 1349" d="M166.83,171.809H150.79a121.4,121.4,0,0,1,8.532-11.741c2.382-2.929,4.888-5.781,7.508-8.529Z" transform="translate(-135.316 -118.754)" fill="#6c63ff" opacity="0.1"/>
    <path id="Path_1350" data-name="Path 1350" d="M138.718,219.1V261H109.57a3.549,3.549,0,0,1,.032-.366c.025-.318.051-.661.079-.989.029-.385.067-.776.1-1.164s.08-.84.121-1.272.086-.84.134-1.256.092-.836.143-1.25.1-.836.153-1.253c.045-.343.089-.687.137-1.033.067-.487.137-.976.21-1.46a1.61,1.61,0,0,1,.032-.216,99.642,99.642,0,0,1,2.147-10.523,77.75,77.75,0,0,1,3.616-10.659,79.577,79.577,0,0,1,5.438-10.494Z" transform="translate(-107.204 -164.81)" fill="#6c63ff" opacity="0.1"/>
    <path id="Path_1351" data-name="Path 1351" d="M223.16,145.859v39.855h62.449V145.859Zm0,41.086v34.227c.356.073.709.146,1.062.207.477.092.954.175,1.434.248.092,0,.188.029.283.038.191.032.385.057.576.083.48.067.954.121,1.447.165l.687.06.557.041h0c.3.022.6.041.9.051a4.676,4.676,0,0,1,.557.022H232.7c.248,0,.5,0,.741-.022h.016a3.992,3.992,0,0,0,.515-.022,1.131,1.131,0,0,0,.146,0,3.16,3.16,0,0,0,.426-.019h.1l.954-.076c.318-.029.636-.064.954-.1l.655-.08a57.352,57.352,0,0,0,7.909-1.682c5.826-1.625,11.512-3.9,17.347-5.562,7.527-2.147,15.849-3.2,23.119-.588v-27Zm62.449-85.457V48.43a80.2,80.2,0,0,0-20.289,2.379C249.5,54.78,235.307,63.4,223.16,74.4v27.084h3.123v1.231H223.15v41.925h62.459V102.719H239.161v-1.231Zm80.229-17.923a25.892,25.892,0,0,1-11.321-3.291c-6.726-3.657-12.11-9.308-18.1-14.075A83.12,83.12,0,0,0,292.6,48.789v52.7h89.142l.219-.235Zm8.122-1.453,8.612,9.451V79.638a34.472,34.472,0,0,0-8.611,2.474Zm8.612,147.553V186.938H364.209c-.048-.181-.1-.366-.156-.55.054.184.1.369.153.55H292.6v30.9q1.021.758,2.016,1.59h0c.719.585,1.428,1.183,2.14,1.781l.716.591c.343.286.69.566,1.037.849q1.04.84,2.1,1.66c.35.277.706.547,1.059.817a144.73,144.73,0,0,0,17.757,11.613q2.083,1.158,4.2,2.248,1.412.725,2.84,1.425,2.143,1.046,4.318,2.026h0a158.7,158.7,0,0,0,42.081,12.237q4.837.712,9.712,1.123v-26.13h0ZM292.6,102.719v41.925h89.975V102.719Zm0,43.14v39.855h89.975V145.859Zm96.959-66.278V92.912L400.547,80.85Q395.084,79.959,389.554,79.581Zm0,66.278v39.855h87.511V145.859Zm87.2,86.973.318-45.888H389.554v69.318a157.062,157.062,0,0,0,16.911-.2h.1q4.026-.258,8.03-.738h.06a147.8,147.8,0,0,0,41.258-11.031m38.036-91.883q-.5-1.164-1.021-2.309c-.636-1.428-1.339-2.84-2.048-4.239h-6.828v39.855h17.261C501.3,174.425,498.441,162.9,493.948,152.407Zm-9.9,34.532v39.48a56.476,56.476,0,0,0,11.928-16.088,55.43,55.43,0,0,0,5.32-23.386Zm0-52.7v10.405h6.188a112.555,112.555,0,0,0-6.188-10.4ZM424.715,87.4c-.455-.175-.913-.35-1.371-.518a124.37,124.37,0,0,0-14.781-4.452l-16.819,18.444h0l-.318.353.216.235h59.835A127.993,127.993,0,0,0,424.716,87.4Zm28.537,15.318H390.781l-1.228,1.123v40.8h87.5v-19.78a124.589,124.589,0,0,0-23.818-22.146Z" transform="translate(-184.665 -48.43)" fill="#6c63ff" opacity="0.1"/>
    <path id="Path_1352" data-name="Path 1352" d="M138.718,285.6v20.769H109.57a3.55,3.55,0,0,1,.032-.366c.025-.318.051-.661.079-.989.029-.385.067-.776.1-1.164s.08-.84.121-1.272.086-.84.134-1.256.092-.836.143-1.25.1-.836.153-1.253c.045-.343.089-.687.137-1.034.067-.487.137-.976.21-1.46a1.611,1.611,0,0,1,.032-.216,99.644,99.644,0,0,1,2.147-10.523Z" transform="translate(-107.204 -210.176)" fill="#6c63ff" opacity="0.1"/>
    <path id="Path_1353" data-name="Path 1353" d="M108.015,354.82h29.237v39.852h-27.1c-.07.413-.14.824-.216,1.234h27.316V428.04l-.137-.051c-.776-.318-1.542-.636-2.3-.973l-.493-.223q-1.164-.544-2.3-1.154c-.267-.14-.534-.286-.8-.439a47.932,47.932,0,0,1-11.5-8.949c-.1-.1-.191-.2-.283-.293-.464-.506-.922-1.021-1.367-1.545l-.493-.585c-.522-.636-1.03-1.3-1.52-1.972-.073-.1-.143-.2-.216-.293a42.466,42.466,0,0,1-4.954-8.958c-.041-.1-.076-.2-.114-.3-.4-1.008-.76-2.029-1.072-3.072-.13-.436-.261-.878-.369-1.317-.041-.134-.073-.264-.108-.391-1.619-6.382-1.806-13.016-1.806-19.614v-2.309c0-2.665.032-5.346.076-8.026q.022-1.04.045-2.083c.041-1.768.1-3.539.172-5.307.019-.49.041-.983.067-1.469,0-.283.025-.566.045-.849C107.884,356.852,107.945,355.831,108.015,354.82Z" transform="translate(-105.738 -257.391)" fill="#6c63ff" opacity="0.1"/>
    <path id="Path_1354" data-name="Path 1354" d="M143.043,163.527v35.909H121.06V163.527h3.132V151.37h12.87v12.157Z" transform="translate(-82.563 -103.238)" fill="#6c63ff" opacity="0.1"/>
    <rect id="Rectangle_702" data-name="Rectangle 702" width="21.983" height="39.855" transform="translate(38.497 97.429)" fill="#6c63ff" opacity="0.1"/>
    <path id="Path_1355" data-name="Path 1355" d="M223.18,484h21.983v33.145a57.765,57.765,0,0,1-7.906,1.679l-.658.083-.954.1-.954.076h-.1c-.14,0-.283.019-.426.022h-.146c-.175,0-.347.019-.518.022h-.016c-.245,0-.49.019-.741.022H230.7l-.557-.022c-.3,0-.6-.032-.9-.051h0l-.553-.041-.69-.064c-.483-.045-.954-.1-1.444-.165l-.576-.079a1.69,1.69,0,0,1-.283-.041c-.48-.073-.954-.153-1.434-.245-.356-.064-.709-.137-1.065-.21Z" transform="translate(-184.686 -345.492)" fill="#6c63ff" opacity="0.1"/>
    <rect id="Rectangle_703" data-name="Rectangle 703" width="18.129" height="40.148" transform="translate(179.779 56.051)" fill="#6c63ff" opacity="0.1"/>
    <path id="Path_1356" data-name="Path 1356" d="M429.385,306.39v39.855H339.41V329.057h47.926V339.2h23.92V306.39Z" transform="translate(-231.477 -208.961)" fill="#6c63ff" opacity="0.1"/>
    <path id="Path_1357" data-name="Path 1357" d="M531.761,525.56h-.286v26.146q-4.875-.413-9.712-1.123a158.736,158.736,0,0,1-42.081-12.272q-5.8-2.614-11.362-5.7A145.377,145.377,0,0,1,450.549,521q-2.124-1.622-4.188-3.323c-.954-.789-1.908-1.59-2.862-2.375-.665-.537-1.336-1.072-2.019-1.59V482.82h71.627l-.149-.55c.054.184.1.366.153.55h18.365v42.72Z" transform="translate(-333.566 -344.312)" fill="#6c63ff" opacity="0.1"/>
    <path id="Path_1358" data-name="Path 1358" d="M847.811,183.963H836v-3.67h5.292V169.36c.458.169.916.34,1.371.518v10.415h5.145Z" transform="translate(-602.628 -130.908)" fill="#6c63ff" opacity="0.1"/>
    <path id="Path_1359" data-name="Path 1359" d="M815.188,261.066H757.194l.019.016-.025-.016H746.43V220.919h3.043v29.673H763.4V233.034h11.512V219.16h11.807v13.874h11.505v17.557h16.959Z" transform="translate(-541.542 -164.871)" fill="#6c63ff" opacity="0.1"/>
    <path id="Path_1360" data-name="Path 1360" d="M746.43,354.82v39.855h68.758V354.82Zm87.416,86.76.1-31.546H815.179V395.9H746.43v69.324a157.069,157.069,0,0,0,16.911-.2h.1q4.026-.258,8.03-.738h.06a147.8,147.8,0,0,0,41.258-11.031" transform="translate(-541.542 -257.391)" fill="#6c63ff" opacity="0.1"/>
    <path id="Path_1361" data-name="Path 1361" d="M1044.808,484h16.04a55.428,55.428,0,0,1-5.323,23.383,56.219,56.219,0,0,1-11.925,16.091V498.132h1.208Z" transform="translate(-744.211 -345.492)" fill="#6c63ff" opacity="0.1"/>
    <path id="Path_1362" data-name="Path 1362" d="M1063.45,408.708H1047.4V375.4h8.685C1060.578,385.9,1063.437,397.422,1063.45,408.708Z" transform="translate(-746.802 -271.427)" fill="#6c63ff" opacity="0.1"/>
    <rect id="Rectangle_704" data-name="Rectangle 704" width="9.712" height="12.587" transform="translate(188.197 67.209)" fill="#6c63ff" opacity="0.1"/>
    <rect id="Rectangle_705" data-name="Rectangle 705" width="9.712" height="2.897" transform="translate(188.197 93.301)" fill="#6c63ff" opacity="0.1"/>
    <rect id="Rectangle_706" data-name="Rectangle 706" width="9.712" height="8.456" transform="translate(188.197 97.429)" fill="#6c63ff" opacity="0.1"/>
    <rect id="Rectangle_707" data-name="Rectangle 707" width="9.712" height="12.587" transform="translate(188.197 119.39)" fill="#6c63ff" opacity="0.1"/>
    <rect id="Rectangle_708" data-name="Rectangle 708" width="9.712" height="12.587" transform="translate(188.197 145.482)" fill="#6c63ff" opacity="0.1"/>
    <path id="Path_1363" data-name="Path 1363" d="M703.652,597.648l.286.019h-.286v2.922H693.94V588h9.712Z" transform="translate(-505.743 -416.419)" fill="#6c63ff" opacity="0.1"/>
    <path id="Path_1364" data-name="Path 1364" d="M703.652,670v9.721q-4.875-.413-9.712-1.123V670Z" transform="translate(-505.743 -472.343)" fill="#6c63ff" opacity="0.1"/>
    <rect id="Rectangle_709" data-name="Rectangle 709" width="41.62" height="0.925" transform="translate(107.933 136.359)" fill="#6c63ff" opacity="0.1"/>
    <rect id="Rectangle_710" data-name="Rectangle 710" width="41.62" height="3.543" transform="translate(107.933 138.515)" fill="#6c63ff" opacity="0.1"/>
    <rect id="Rectangle_711" data-name="Rectangle 711" width="41.62" height="5.699" transform="translate(107.933 153.674)" fill="#6c63ff" opacity="0.1"/>
    <path id="Path_1365" data-name="Path 1365" d="M487.447,586.14v5.7H454.88q-2.124-1.622-4.188-3.323c-.954-.789-1.908-1.59-2.862-2.372Z" transform="translate(-337.897 -415.151)" fill="#6c63ff" opacity="0.1"/>
    <path id="Path_1366" data-name="Path 1366" d="M540.677,640.57v5.7h-3.434q-5.8-2.614-11.362-5.7Z" transform="translate(-391.127 -452.272)" fill="#6c63ff" opacity="0.1"/>
    <rect id="Rectangle_712" data-name="Rectangle 712" width="8.192" height="8.192" transform="translate(221.803 101.293)" fill="#6c63ff" opacity="0.1"/>
    <rect id="Rectangle_713" data-name="Rectangle 713" width="8.192" height="8.192" transform="translate(44.399 63.117)" fill="#6c63ff" opacity="0.1"/>
    <rect id="Rectangle_714" data-name="Rectangle 714" width="8.192" height="8.192" transform="translate(44.399 82.146)" fill="#6c63ff" opacity="0.1"/>
    <rect id="Rectangle_715" data-name="Rectangle 715" width="8.192" height="8.192" transform="translate(44.399 101.178)" fill="#6c63ff" opacity="0.1"/>
    <rect id="Rectangle_716" data-name="Rectangle 716" width="8.192" height="8.192" transform="translate(44.399 120.211)" fill="#6c63ff" opacity="0.1"/>
    <rect id="Rectangle_717" data-name="Rectangle 717" width="8.192" height="8.192" transform="translate(44.399 139.243)" fill="#6c63ff" opacity="0.1"/>
    <rect id="Rectangle_718" data-name="Rectangle 718" width="8.192" height="8.192" transform="translate(44.399 158.275)" fill="#6c63ff" opacity="0.1"/>
    <rect id="Rectangle_719" data-name="Rectangle 719" width="8.192" height="8.192" transform="translate(253.082 101.293)" fill="#6c63ff" opacity="0.1"/>
    <rect id="Rectangle_720" data-name="Rectangle 720" width="8.192" height="8.192" transform="translate(221.803 121.502)" fill="#6c63ff" opacity="0.1"/>
    <rect id="Rectangle_721" data-name="Rectangle 721" width="8.192" height="8.192" transform="translate(253.082 121.502)" fill="#6c63ff" opacity="0.1"/>
    <rect id="Rectangle_722" data-name="Rectangle 722" width="8.192" height="8.192" transform="translate(221.803 141.711)" fill="#6c63ff" opacity="0.1"/>
    <rect id="Rectangle_723" data-name="Rectangle 723" width="8.192" height="8.192" transform="translate(253.082 141.711)" fill="#6c63ff" opacity="0.1"/>
    <rect id="Rectangle_724" data-name="Rectangle 724" width="8.192" height="8.192" transform="translate(221.803 161.92)" fill="#6c63ff" opacity="0.1"/>
    <rect id="Rectangle_725" data-name="Rectangle 725" width="8.192" height="8.192" transform="translate(253.082 161.92)" fill="#6c63ff" opacity="0.1"/>
    <rect id="Rectangle_726" data-name="Rectangle 726" width="8.192" height="8.192" transform="translate(221.803 182.129)" fill="#6c63ff" opacity="0.1"/>
    <rect id="Rectangle_727" data-name="Rectangle 727" width="8.192" height="8.192" transform="translate(253.082 182.129)" fill="#6c63ff" opacity="0.1"/>
    <path id="Path_1367" data-name="Path 1367" d="M697.49,641.572V636.29h8.192v4.531Z" transform="translate(-475.687 -433.952)" fill="#6c63ff" opacity="0.1"/>
    <path id="Path_1368" data-name="Path 1368" d="M113.05,318.72v4.687h28.038V318.72Zm2.792,4.395h-2.3v-4.1h2.3Zm2.792,0h-2.3v-4.1h2.3Zm2.786,0h-2.3v-4.1h2.3Zm2.792,0h-2.3v-4.1h2.3Zm2.789,0h-2.3v-4.1H127Zm2.792,0h-2.3v-4.1h2.3Zm2.792,0h-2.3v-4.1h2.3Zm2.789,0h-2.306v-4.1h2.3Zm2.789,0h-2.3v-4.1h2.293Zm2.789,0h-2.3v-4.1h2.3Z" transform="translate(-109.577 -232.771)" fill="#6c63ff" opacity="0.1"/>
    <path id="Path_1369" data-name="Path 1369" d="M113.05,361.63v4.687h28.038V361.63Zm2.792,4.392h-2.3v-4.1h2.3Zm2.792,0h-2.3v-4.1h2.3Zm2.786,0h-2.3v-4.1h2.3Zm2.792,0h-2.3v-4.1h2.3Zm2.789,0h-2.3v-4.1H127Zm2.792,0h-2.3v-4.1h2.3Zm2.792,0h-2.3v-4.1h2.3Zm2.789,0h-2.306v-4.1h2.3Zm2.789,0h-2.3v-4.1h2.293Zm2.789,0h-2.3v-4.1h2.3Z" transform="translate(-109.577 -262.035)" fill="#6c63ff" opacity="0.1"/>
    <path id="Path_1370" data-name="Path 1370" d="M113.05,404.54v4.684h28.038V404.54Zm2.792,4.388h-2.3v-4.1h2.3Zm2.792,0h-2.3v-4.1h2.3Zm2.786,0h-2.3v-4.1h2.3Zm2.792,0h-2.3v-4.1h2.3Zm2.789,0h-2.3v-4.1H127Zm2.792,0h-2.3v-4.1h2.3Zm2.792,0h-2.3v-4.1h2.3Zm2.789,0h-2.306v-4.1h2.3Zm2.789,0h-2.3v-4.1h2.293Zm2.789,0h-2.3v-4.1h2.3Z" transform="translate(-109.577 -291.3)" fill="#6c63ff" opacity="0.1"/>
    <path id="Path_1371" data-name="Path 1371" d="M113.05,447.44v4.684h28.038V447.44Zm2.792,4.392h-2.3v-4.1h2.3Zm2.792,0h-2.3v-4.1h2.3Zm2.786,0h-2.3v-4.1h2.3Zm2.792,0h-2.3v-4.1h2.3Zm2.789,0h-2.3v-4.1H127Zm2.792,0h-2.3v-4.1h2.3Zm2.792,0h-2.3v-4.1h2.3Zm2.789,0h-2.306v-4.1h2.3Zm2.789,0h-2.3v-4.1h2.293Zm2.789,0h-2.3v-4.1h2.3Z" transform="translate(-109.577 -320.558)" fill="#6c63ff" opacity="0.1"/>
    <path id="Path_1372" data-name="Path 1372" d="M113.43,490.34c.111.442.239.881.372,1.317v-1.021h2.3v4.1h-1.218c.035.1.073.2.111.293h26.362V490.34Zm5.463,4.392h-2.3v-4.1h2.3Zm2.786,0h-2.3v-4.1h2.3Zm2.792,0h-2.3v-4.1h2.3Zm2.789,0h-2.3v-4.1h2.3Zm2.792,0h-2.3v-4.1h2.3Zm2.792,0h-2.3v-4.1h2.3Zm2.789,0h-2.306v-4.1h2.3Zm2.789,0h-2.3v-4.1h2.293Zm2.789,0h-2.3v-4.1h2.3Z" transform="translate(-109.837 -349.815)" fill="#6c63ff" opacity="0.1"/>
    <path id="Path_1373" data-name="Path 1373" d="M133.9,533.25c.073.092.143.194.216.293h1.523v1.968l.493.588v-2.544h2.3v4.1H137.5c.092.1.181.2.283.293h17.525v-4.7Zm7.314,4.392h-2.3v-4.1h2.3Zm2.792,0h-2.3v-4.1h2.3Zm2.792,0h-2.3v-4.1h2.3Zm2.789,0h-2.3v-4.1h2.3Zm2.789,0h-2.3v-4.1h2.3Zm2.789,0h-2.3v-4.1h2.3Z" transform="translate(-123.797 -379.08)" fill="#6c63ff" opacity="0.1"/>
    <path id="Path_1374" data-name="Path 1374" d="M182.27,576.15c.264.149.531.3.8.436v-.143h2.293v1.3l.49.226v-1.523h2.3v2.493a1,1,0,0,0,.137.051V576.15Z" transform="translate(-156.785 -408.338)" fill="#6c63ff" opacity="0.1"/>
    <path id="Path_1375" data-name="Path 1375" d="M407.036,258.446Zm-17.748,85.015Zm-18.517-43.248c.054.184.1.369.153.55h0c-.045-.2-.1-.382-.153-.566Zm36.265-41.766ZM233,215.29v1.231h12.879V215.29ZM389.288,343.461Zm-18.517-43.248c.054.184.1.369.153.55h0c-.045-.2-.1-.382-.153-.566Zm36.265-41.766Zm-17.748,85.015Zm-18.517-43.248c.054.184.1.369.153.55h0c-.045-.2-.1-.382-.153-.566Z" transform="translate(-191.383 -162.232)" fill="#6c63ff" opacity="0.1"/>
    <circle id="Ellipse_304" data-name="Ellipse 304" cx="6.878" cy="6.878" r="6.878" transform="translate(254.255 27.125)" fill="#6c63ff" opacity="0.1"/>
    <circle id="Ellipse_305" data-name="Ellipse 305" cx="5.409" cy="5.409" r="5.409" transform="translate(286.256 45.448)" fill="#6c63ff" opacity="0.1"/>
    <circle id="Ellipse_306" data-name="Ellipse 306" cx="1.908" cy="1.908" r="1.908" transform="translate(304.887 22.883)" fill="#6c63ff" opacity="0.1"/>
    <path id="Path_1390" data-name="Path 1390" d="M772.5,552.21a3.622,3.622,0,0,1-1.488,1.7" transform="translate(-558.305 -392.011)" opacity="0.1"/>
    <path id="Path_1391" data-name="Path 1391" d="M919.36,708.17a10.673,10.673,0,0,0,2.862,3.794" transform="translate(-659.479 -498.375)" opacity="0.1"/>
    <path id="Path_1392" data-name="Path 1392" d="M909.12,719.46a5.883,5.883,0,0,0,.394,1.711,1.994,1.994,0,0,0,1.25,1.158" transform="translate(-652.496 -506.075)" opacity="0.1"/>
    <path id="Path_1393" data-name="Path 1393" d="M897.07,435.943s1.854-3.123,2.83-3.123" transform="translate(-644.278 -310.587)" opacity="0.2"/>
    <path id="Path_1394" data-name="Path 1394" d="M898.61,434.145s5.753-6.535,7.12-6.535" transform="translate(-645.328 -307.034)" opacity="0.2"/>
    <path id="Path_1395" data-name="Path 1395" d="M864.56,423.93a2.053,2.053,0,0,1,1.854,1.463" transform="translate(-622.106 -304.524)" opacity="0.2"/>
    <path id="Path_1396" data-name="Path 1396" d="M855.66,422.09s3.514,3.024,3.609,4.29" transform="translate(-616.036 -303.269)" opacity="0.2"/>
    <path id="Path_1397" data-name="Path 1397" d="M883.88,470.86a5.248,5.248,0,0,0,1.854,1.657" transform="translate(-635.282 -336.53)" opacity="0.2"/>
    <path id="Path_1398" data-name="Path 1398" d="M886,461.35s1.657,3.609,2.633,3.609" transform="translate(-636.728 -330.044)" opacity="0.2"/>
    <path id="Path_1399" data-name="Path 1399" d="M899.53,502.45s3.7,5.365,8.192,4.77" transform="translate(-645.955 -358.074)" opacity="0.2"/>
    <path id="Path_1400" data-name="Path 1400" d="M862.449,500s-2.926,3.024-5.559,3.024" transform="translate(-616.875 -356.404)" opacity="0.2"/>
    <path id="Path_1401" data-name="Path 1401" d="M948.68,412.18s6.115,2.487,5.918,4.395" transform="translate(-679.476 -296.51)" opacity="0.2"/>
    <path id="Path_1402" data-name="Path 1402" d="M957.16,408.87s4.01,3.027,4.6,4.474" transform="translate(-685.259 -294.253)" opacity="0.2"/>
    <path id="Path_1403" data-name="Path 1403" d="M821.09,418.929s5.854-.919,6.576-.264" transform="translate(-592.459 -300.772)" opacity="0.2"/>
    <path id="Path_1404" data-name="Path 1404" d="M823.78,410.707s4.932-.394,5.918.318" transform="translate(-594.294 -295.431)" opacity="0.2"/>
    <path id="Path_1406" data-name="Path 1406" d="M732.246,475.267V464.955h1.406V461.87H723.577v3.085h1.4v10.313a10.24,10.24,0,1,0,7.266,0Z" transform="translate(-518.406 -357.399)" fill="#96b7fe" opacity="0.9"/>
    <rect id="Rectangle_728" data-name="Rectangle 728" width="7.266" height="0.14" transform="translate(202.577 134.524)" opacity="0.1"/>
    <path id="Path_1407" data-name="Path 1407" d="M732.57,528.252s6.166-.108,9.251-1.65,4.843-.165,4.678.77-1.046,2.754-4.57,2.973S732.57,528.252,732.57,528.252Z" transform="translate(-528.089 -401.072)" fill="#6c63ff"/>
    <path id="Path_1408" data-name="Path 1408" d="M732.57,528.252s6.166-.108,9.251-1.65,4.843-.165,4.678.77-1.046,2.754-4.57,2.973S732.57,528.252,732.57,528.252Z" transform="translate(-528.089 -401.072)" opacity="0.1"/>
    <path id="Path_1409" data-name="Path 1409" d="M724.245,530.031s-.661,9.136,7.982,9.3,8.586-9.193,8.586-9.193-3.18,3.469-10.736.607C730.077,530.747,726.169,529.7,724.245,530.031Z" transform="translate(-522.403 -403.841)" fill="#6c63ff"/>
    <path id="Path_1410" data-name="Path 1410" d="M740.782,530.542c-.172,2.105-1.291,8.694-8.554,8.554-7.12-.134-7.925-6.36-7.988-8.548-.041,1.173,0,9,7.988,9.155,8.643.165,8.586-9.193,8.586-9.193Z" transform="translate(-522.404 -404.211)" opacity="0.1"/>
    <circle id="Ellipse_308" data-name="Ellipse 308" cx="1.123" cy="1.123" r="1.123" transform="translate(204.752 148.125)" fill="#6c63ff" opacity="0.3"/>
    <circle id="Ellipse_309" data-name="Ellipse 309" cx="0.693" cy="0.693" r="0.693" transform="translate(205.823 144.07)" fill="#6c63ff" opacity="0.3"/>
    <circle id="Ellipse_310" data-name="Ellipse 310" cx="0.693" cy="0.693" r="0.693" transform="translate(204.275 140.067)" fill="#6c63ff" opacity="0.3"/>
    <path id="Path_1411" data-name="Path 1411" d="M727.946,516.9c-.057.471-.048,1.062.375,1.272-.375-.156,1.088-2.271.9-2.7C728.764,514.562,727.994,516.464,727.946,516.9Z" transform="translate(-528.919 -366.791)" fill="#fff" opacity="0.2"/>
    <circle id="Ellipse_311" data-name="Ellipse 311" cx="1.123" cy="1.123" r="1.123" transform="translate(203.283 127.169)" fill="#6c63ff" opacity="0.3"/>
    <circle id="Ellipse_312" data-name="Ellipse 312" cx="0.833" cy="0.833" r="0.833" transform="translate(206.936 125.537)" fill="#6c63ff" opacity="0.3"/>
    <circle id="Ellipse_313" data-name="Ellipse 313" cx="0.432" cy="0.432" r="0.432" transform="translate(204.936 123.693)" fill="#6c63ff" opacity="0.3"/>
    <path id="Path_1412" data-name="Path 1412" d="M402.4,262.028a28.446,28.446,0,0,0,10.659,2.407c-.022.149-.048.3-.073.439a13.133,13.133,0,0,1-1.113,3.466h.229c-5.18,7.8-.874,24.289-.874,24.289s1.126,6.153,3.053,12.936c1.069,3.756.483,5.867-.245,7v.022c-.048.073-.092.149-.14.226V312.7c-4.417,5.206-1.447,7.848-1.447,7.848l2.461,3.081-.213,5.362,1.606.318-.378-4.407,1.5,1.883.318,4.417s7.384.712,12.284,1.59,5.619-1.5,3.45-2.207-4.334-5.05-4.334-5.05a5.229,5.229,0,0,0-1.272-.277l-.124-.258c-1.622-3.415-3.826-9.709-3.826-9.709v-.054c-.232-2.6-.6-5.2-1.011-7.785-.738-4.649.614-16.065.614-16.065s.483-13.884,1.526-17.042a25.7,25.7,0,0,0,.938-4.916c.029-.242.051-.48.073-.709,8.348.064,18.126-.162,22.594-1.4a31.5,31.5,0,0,1,3.911-.8c-.038.229-.083.471-.13.728a54.7,54.7,0,0,1-1.533,5.988c-1.927,6.153-1.126,16.488,1.523,23.9,1.937,5.406,1.39,12.72.954,16.269-.016.146-.035.289-.054.423l-.051-.045a2.964,2.964,0,0,1-.973,2.159,4.98,4.98,0,0,0-1.778,4.617,6.239,6.239,0,0,0,2.709,4.109v6.942h1.526v-6.872c4.977-1.183,10.917,7.89,10.917,7.89s8.513.394,15.175.235,2.169-3.075,2.169-3.075c-7.486.235-10.86-4.013-10.86-4.013l-.089.614-.06-.054c-2.8-2.627-6.36-9.162-6.36-9.162a15.591,15.591,0,0,0-1.123-4.891c-.881-1.577-.541-18.155-.541-18.155l-.07-27.011v-.712a10.494,10.494,0,0,0,3.126.032c1.272-.55.239-9.152-.884-11.283-.7-1.329-3.374-10.214-5.282-16.711a18.154,18.154,0,0,0,1.666,2.194c-1.208-1.59-7.785-33.209-7.785-33.209l-.226-4.134a22.556,22.556,0,0,0,2.544-4.318c2.595-.293,9.063-1.425,12.6-5.584.82-.954,1-1.65.731-2.121l19.9-4.109,3.854-3.237-11.916,2.2c2.353-4.4-.531-6-3.349-6.57l.674-2.092a.98.98,0,0,0-.14-.881h0l-.022-.025-.044-.057a.949.949,0,0,0-.08-.079l-.054-.048a1.172,1.172,0,0,0-.1-.07l-.054-.032a1.446,1.446,0,0,0-.175-.076,1.034,1.034,0,0,0-1.291.658l-.785,2.436-.337-.019h0l-14.628-.636s-2.328-3.469-3.212-2.445-2.169-.156-2.169-.156,0-7.416-1.927-7.1a2.436,2.436,0,0,1-1.962-.534l-.044-.808s-.318-3.787-.636-7.021c-.293-2.954-5.724-6.891-6.678-7.556l-6.185-8.64a.452.452,0,0,0-.032.051l-.207-.289h0l.029-.181c.029-.149.051-.3.079-.445a12.16,12.16,0,0,0,3.654.56,11.818,11.818,0,0,0,11.922-11.715,11.477,11.477,0,0,0-.855-4.366c-.022-.057-.048-.111-.07-.169a3.412,3.412,0,0,0,1.953-.2,1.437,1.437,0,0,0,.385-.251c1.657-1.571-2.2-5.473-2.894-6.872-.576-1.151-.862-2.439-1.549-3.527a6.306,6.306,0,0,0-1.323-1.479c.038.057.08.114.118.175s.025.048.041.07a9.985,9.985,0,0,0-3.5-1.933c-4.725-1.59-14.711-3.924-17.69.019a9.1,9.1,0,0,1-1.889,2.226,14.214,14.214,0,0,1-2.045.906,7.69,7.69,0,0,0-3.768,4.77c-.652,1.981-.84,4.045-1.313,6.042a44.133,44.133,0,0,1-2.732,7.457c-1.253,2.862-2.582,5.842-4.993,7.871-3.291,2.77-4.035,6.678-7.076,9.715-3.622,3.606-3.5,9.54-1.638,14.275a3.922,3.922,0,0,1,.426,1.927,3.692,3.692,0,0,1-1.068,1.784L401.05,173a11.035,11.035,0,0,0,7.448-.954,11.909,11.909,0,0,0,1.364-.795l-.019.55c-.149,4.77-.06,8.507-.06,8.507,2.49,4.023-4.013,36.37-4.013,36.37C404.249,222.9,402.4,262.028,402.4,262.028Zm52.811-72.533c-.254-.016-.518-.029-.789-.038v-.076Zm6.8.792-.588.588c-1.243.2-2.1.388-2.1.388l-1.231.277a3.484,3.484,0,0,0-.617-1.619.9.9,0,0,0-.356-.172C458.723,189.949,460.4,190.128,462.017,190.287Z" transform="translate(-305.993 -91.557)" fill="url(#linear-gradient)"/>
    <path id="Path_1413" data-name="Path 1413" d="M345.06,728.355l.471,5.581-1.571-.315.235-6.052Z" transform="translate(-234.58 -496.205)" fill="#1d2366"/>
    <path id="Path_1414" data-name="Path 1414" d="M556.841,623.506c1.908,5.406,1.358,12.675.932,16.218-.159,1.307-.318,2.105-.318,2.105s2.83,6.449,3.065,6.678,8.335,5.19,8.335,5.19l5.66,3.3s5.74-2.515,2.986-3.38a4.136,4.136,0,0,1-1.482-1.014c-2.744-2.617-6.223-9.13-6.223-9.13a15.758,15.758,0,0,0-1.1-4.872c-.862-1.571-.553-18.085-.553-18.085l-.067-26.919v-3.5l-10.774.079a24.64,24.64,0,0,1-.464,3.546,54.333,54.333,0,0,1-1.5,5.969C553.461,605.816,554.246,616.116,556.841,623.506Z" transform="translate(-410.512 -417.852)" fill="#ffb0b1"/>
    <path id="Path_1415" data-name="Path 1415" d="M564.26,748.222s2.83,6.449,3.066,6.678,8.335,5.19,8.335,5.19l5.66,3.3s5.74-2.515,2.986-3.38A4.134,4.134,0,0,1,582.825,759l-.245,1.72-1.889-.076-16.129-14.53C564.4,747.423,564.26,748.222,564.26,748.222Z" transform="translate(-417.302 -524.25)" opacity="0.1"/>
    <path id="Path_1416" data-name="Path 1416" d="M558.947,747.31l16.218,14.628,1.886.079.394-2.754s3.3,4.245,10.615,4.01c0,0,4.4,2.91-2.124,3.065s-14.857-.235-14.857-.235-5.819-9.041-10.694-7.861v6.84H558.89V758.16a6.217,6.217,0,0,1-2.652-4.1,5.021,5.021,0,0,1,1.739-4.6A2.973,2.973,0,0,0,558.947,747.31Z" transform="translate(-411.792 -525.068)" fill="#1d2366"/>
    <path id="Path_1417" data-name="Path 1417" d="M434.931,631.293c1.043,3.74.474,5.848-.242,6.98a.08.08,0,0,0,0,.022,12.914,12.914,0,0,0-1.883,4.6l-.064.353,7.387,10.771,4,1.574s6.446-2.2,5.266-2.83a5.967,5.967,0,0,1-1.272-2.1c-1.59-3.406-3.752-9.69-3.752-9.69v-.051c-.226-2.6-.588-5.183-.992-7.759-.722-4.633.6-16.011.6-16.011s.471-13.836,1.495-16.984a26.262,26.262,0,0,0,.916-4.9c.216-1.978.264-3.593.264-3.593s-4.245-5.9-12.03.474A8.674,8.674,0,0,0,433,593.909c-5.374,7.648-1.049,24.486-1.049,24.486S433.042,624.532,434.931,631.293Z" transform="translate(-325.946 -417.227)" fill="#ffb0b1"/>
    <path id="Path_1418" data-name="Path 1418" d="M437.93,748.309l7.387,10.771,4.01,1.574s6.446-2.2,5.266-2.83a5.969,5.969,0,0,1-1.272-2.1,5.064,5.064,0,0,0-4.134,2.576l-3.46-.55s-4.56-8.964-5.581-9.511-.159-4.093-.159-4.093v-.9l-.083.1a.077.077,0,0,0,0,.022,12.914,12.914,0,0,0-1.883,4.6Z" transform="translate(-331.145 -522.293)" opacity="0.1"/>
    <path id="Path_1419" data-name="Path 1419" d="M447.714,759.068s1.965-3.616,5.724-2.28c0,0,2.124,4.325,4.245,5.031s1.418,3.069-3.38,2.2-12.014-1.558-12.014-1.558l-.318-4.4-4.875-6.211s-2.91-2.636,1.415-7.823v.9s-.865,3.536.156,4.089,5.584,9.511,5.584,9.511Z" transform="translate(-329.923 -522.831)" fill="#1d2366"/>
    <path id="Path_1420" data-name="Path 1420" d="M562.764,590.17a24.623,24.623,0,0,1-.464,3.546,50.041,50.041,0,0,1,11.248-.118v-3.5Z" transform="translate(-415.965 -417.852)" opacity="0.1"/>
    <path id="Path_1421" data-name="Path 1421" d="M437.43,594.884s6.306.318,13.811.369c.216-1.978.264-3.593.264-3.593s-4.245-5.9-12.03.474a8.677,8.677,0,0,0-1.625,1.765A9.809,9.809,0,0,1,437.43,594.884Z" transform="translate(-330.804 -417.22)" opacity="0.1"/>
    <path id="Path_1422" data-name="Path 1422" d="M437.43,446.229s27.6,1.336,36.007-1.021,16.746-.318,18.005-.868.235-9.12-.865-11.241-7.155-23.586-7.155-23.586L477.6,379.16l-6.131-1.692-.432-.121L460.355,374.4l-7.829-2.159s-15.55,60.78-14.231,65.26a11.464,11.464,0,0,1,.226,5.276A13.26,13.26,0,0,1,437.43,446.229Z" transform="translate(-330.804 -269.271)" fill="#1d2366"/>
    <path id="Path_1423" data-name="Path 1423" d="M615.581,328.75s5.5,5.9,1.336,9.2-6.917.318-6.917.318Z" transform="translate(-448.496 -239.611)" fill="#c7daf5"/>
    <path id="Path_1424" data-name="Path 1424" d="M615.581,328.75s5.5,5.9,1.336,9.2-6.917.318-6.917.318Z" transform="translate(-448.496 -239.611)" opacity="0.1"/>
    <path id="Path_1425" data-name="Path 1425" d="M487.49,183.518s.636.611,1.619,1.52c1.386,1.294,3.438,3.18,5.257,4.77,2.522,2.194,4.6,3.816,3.857,2.43s-.6-3.768-.232-6.01c.025-.149.048-.3.076-.445a41.4,41.4,0,0,1,1.218-4.865,83.96,83.96,0,0,0-6.325-7.339c-.84-.776-1.425-1.107-1.46-.563a19.111,19.111,0,0,1-1.272,4.09l-.064.162c-.461,1.17-.973,2.391-1.428,3.441C488.04,182.319,487.49,183.518,487.49,183.518Z" transform="translate(-364.945 -133.217)" fill="#ffb0b1"/>
    <path id="Path_1426" data-name="Path 1426" d="M495.89,177.308a11.687,11.687,0,0,0,7.829,8.961,40.407,40.407,0,0,1,1.294-5.311s-7.667-9.906-7.785-7.9A19.418,19.418,0,0,1,495.89,177.308Z" transform="translate(-370.674 -133.246)" opacity="0.1"/>
    <path id="Path_1427" data-name="Path 1427" d="M508.731,220.5l-.992-1.4s-.658,4.01-3.075,2.242-2.544,13.305-2.544,13.305l2.595,38.8,18.762-1.119-.531-18.762-2.124-9.432-5.247-13.741-3.126-4.541Z" transform="translate(-374.922 -164.83)" opacity="0.1"/>
    <path id="Path_1428" data-name="Path 1428" d="M502.14,235.339l2.347,35.082.248,3.717,10.456-.636.413-.025,7.883-.471-.531-18.762-2.124-9.432-5.247-13.741-3.126-4.538-3.714-5.368-.992-1.4s-.658,4.01-3.075,2.226l-.051-.035h0C502.258,220.479,502.14,235.339,502.14,235.339Z" transform="translate(-374.936 -165.287)" fill="#1d2366"/>
    <path id="Path_1429" data-name="Path 1429" d="M553.138,288.2s.954,1.965,2.83,1.65,1.886,7.079,1.886,7.079,1.272,1.177,2.124.156,3.145,2.436,3.145,2.436l14.31.636s-6.36,2.91-5.11,11.715c0,0-21.624-1.336-22.327-3.38S553.138,288.2,553.138,288.2Z" transform="translate(-407.515 -211.956)" fill="#fff"/>
    <path id="Path_1430" data-name="Path 1430" d="M553.138,288.2s.954,1.965,2.83,1.65,1.886,7.079,1.886,7.079,1.272,1.177,2.124.156,3.145,2.436,3.145,2.436l14.31.636s-6.36,2.91-5.11,11.715c0,0-21.624-1.336-22.327-3.38S553.138,288.2,553.138,288.2Z" transform="translate(-407.515 -211.956)" opacity="0.03"/>
    <path id="Path_1431" data-name="Path 1431" d="M514.021,291.94l-3.775,3.225L479.19,301.69l3.854-3.931Z" transform="translate(-326.807 -199.106)" fill="#fff"/>
    <path id="Path_1432" data-name="Path 1432" d="M520.513,219.407a78.624,78.624,0,0,1,3.225,8.341c1.027,2.935,1.889,5.5,1.889,5.5s2,13.038,3.024,15.407.474,11.559.474,11.559l3.816,22.721s1.727,11.718,4.4,18.714c2.633,6.888,5.565,10.119,5.657,10.217-1.18-1.59-7.632-33.094-7.632-33.094l-2.121-39.706s-.318-3.775-.636-7-6.678-7.632-6.678-7.632l-6.15-8.748C519.158,216.552,519.572,217.992,520.513,219.407Z" transform="translate(-386.765 -162.505)" fill="#fff"/>
    <path id="Path_1433" data-name="Path 1433" d="M572.151,369.15s9.041-.394,13.445-5.66-10.144-2.124-10.144-2.124l-3.771.865Z" transform="translate(-422.362 -261.221)" fill="#ffb0b1"/>
    <path id="Path_1434" data-name="Path 1434" d="M439.98,338.044a11.463,11.463,0,0,1,.226,5.276c9.88.7,20.451-1.972,20.451-1.972,1.965,1.809,7.155,4.481,7.155,4.481l2.83-35.066c1.806-4.716,2.515-29.482,2.515-29.482s-.162-1.3-.413-3.237a.388.388,0,0,0-.019-.146c-.706-5.422-2.1-15.6-2.789-16.978-.954-1.886,2.906-6.917,2.906-6.917l-1.752-14.946-.213-1.8c-3.7-1.654-6.525-6.923-6.525-6.923l-2.172-3.816h0c-2.366-1.517-2.484,13.356-2.484,13.356l2.347,35.082-7.829-2.159S438.66,333.563,439.98,338.044Z" transform="translate(-332.489 -169.815)" opacity="0.1"/>
    <path id="Path_1435" data-name="Path 1435" d="M408.26,320.4c10.768,5.346,30.347.394,30.347.394,1.965,1.806,7.155,4.481,7.155,4.481l2.83-35.066c1.806-4.716,2.515-29.482,2.515-29.482s-2.28-18.476-3.225-20.352a3.053,3.053,0,0,1,.184-2.251,28.518,28.518,0,0,0,1.727-13.191l-.754-6.43-.213-1.8c-3.7-1.65-6.525-6.92-6.525-6.92l-1.972-3.45-3.625-6.36-1.717-3.008-.289.264-2.226,2.019s-.954.776-2.36,1.975c-3.085,2.6-8.414,7.174-11.162,9.973-2.417,2.468-3.18,12.055-3.4,19.274-.146,4.757-.057,8.484-.057,8.484,2.439,4.01-3.931,36.252-3.931,36.252C410.066,281.4,408.26,320.4,408.26,320.4Z" transform="translate(-310.91 -149.731)" fill="#fff"/>
    <path id="Path_1436" data-name="Path 1436" d="M450.453,235.815s7.39,14.072,6.525,19.417-3.3,11.4-2.124,12.815a4.35,4.35,0,0,0,3.46,1.739c1.18.08,4.325,2.28,4.325,2.515s2.91.235,5.5,1.336a34.406,34.406,0,0,0,6.446,1.73s7.47-.235,8.176.474,1.415,4.951-.079,8.332-3.145,5.9-4.4,6.36-9.2-2.2-15.646-2.83-13.445-5.74-13.445-5.74-7.705-2.751-9.041-7.39,1.65-30.112,1.65-30.112S444.083,232.6,450.453,235.815Z" transform="translate(-332.426 -175.853)" opacity="0.03"/>
    <path id="Path_1437" data-name="Path 1437" d="M453.44,232.129s7.39,14.072,6.529,19.417-3.3,11.4-2.124,12.815a4.35,4.35,0,0,0,3.469,1.73c1.18.079,4.325,2.28,4.325,2.515s2.907.235,5.5,1.339a34.141,34.141,0,0,0,6.449,1.73s7.467-.238,8.176.471,1.415,4.951-.079,8.335-3.145,5.9-4.4,6.36-9.2-2.2-15.646-2.83-13.445-5.74-13.445-5.74-7.705-2.751-9.041-7.39,1.65-30.112,1.65-30.112S447.074,228.9,453.44,232.129Z" transform="translate(-334.472 -173.337)" opacity="0.03"/>
    <path id="Path_1438" data-name="Path 1438" d="M451.171,233.609s7.39,14.075,6.525,19.42-3.3,11.4-2.124,12.815a4.35,4.35,0,0,0,3.46,1.73c1.18.076,4.325,2.277,4.325,2.515s2.91.235,5.5,1.336a34.4,34.4,0,0,0,6.446,1.73s7.47-.235,8.176.471,1.415,4.954-.076,8.335-3.145,5.9-4.4,6.36-9.2-2.2-15.646-2.83-13.445-5.724-13.445-5.724-7.7-2.754-9.041-7.39,1.657-30.118,1.657-30.118S444.811,230.385,451.171,233.609Z" transform="translate(-332.916 -174.347)" fill="#fff"/>
    <path id="Path_1439" data-name="Path 1439" d="M470.936,352.717s5.9-1.18,3.854.785-2.045,3.7-4.56,3.619S470.936,352.717,470.936,352.717Z" transform="translate(-352.519 -255.717)" opacity="0.1"/>
    <path id="Path_1440" data-name="Path 1440" d="M434.082,486.73s2.671,1.809-2.439,5.975S434.082,486.73,434.082,486.73Z" transform="translate(-325.647 -347.353)" opacity="0.1"/>
    <path id="Path_1441" data-name="Path 1441" d="M451.258,533.46c0,.235.954,8.646-2.595,10.771S451.258,533.46,451.258,533.46Z" transform="translate(-337.712 -379.223)" opacity="0.1"/>
    <path id="Path_1442" data-name="Path 1442" d="M626.251,325.76c2.862.1,9.012.954,5.816,6.926-2.824,5.272-7.568,1.749-10.227-.925A10.074,10.074,0,0,1,626.251,325.76Z" transform="translate(-456.571 -237.572)" fill="#ffb0b1"/>
    <path id="Path_1443" data-name="Path 1443" d="M620.89,343.66Z" transform="translate(-455.923 -249.78)" fill="#ffb0b1"/>
    <path id="Path_1444" data-name="Path 1444" d="M621.438,344.221l-.118-.121Z" transform="translate(-456.217 -250.08)" fill="#ffb0b1"/>
    <path id="Path_1445" data-name="Path 1445" d="M477,201.968c3.024,2.067,5.562,3.816,6.042,4.175,1.358,1,3.953,6.9,5.6,9.906,1.329,2.423,5.641,3.046,7.27,3.2l-.213-1.8c-3.689-1.65-6.519-6.923-6.519-6.923l-7.314-12.812-2.515,2.28S478.409,200.772,477,201.968Z" transform="translate(-357.791 -150.242)" opacity="0.1"/>
    <path id="Path_1446" data-name="Path 1446" d="M477,201.228c3.024,2.067,5.562,3.816,6.042,4.175,1.358,1,3.953,6.9,5.6,9.906,1.329,2.423,5.641,3.046,7.27,3.2l-.213-1.8c-3.7-1.65-6.525-6.92-6.525-6.92l-7.314-12.815-2.515,2.283S478.409,200.029,477,201.228Z" transform="translate(-357.791 -149.738)" fill="#dce7ff"/>
    <path id="Path_1447" data-name="Path 1447" d="M495.28,153.764a11.626,11.626,0,1,0,3.406-8.269A11.677,11.677,0,0,0,495.28,153.764Z" transform="translate(-370.257 -112.309)" fill="#ffb0b1"/>
    <path id="Path_1448" data-name="Path 1448" d="M431.18,192.965a10.348,10.348,0,0,0,3.759-4.048c.658-1.3,1.094-2.8,2.226-3.724a9.976,9.976,0,0,1,3.622-1.4c4.134-1.224,7.613-5.005,7.747-9.324.06-2.029-.572-4.058-.286-6.067a6.716,6.716,0,0,1,1.32-3.132,10.587,10.587,0,0,1,1.135-1.224c.553-.522,1.129-1.024,1.631-1.59a6.153,6.153,0,0,0,.833-1.123,5.5,5.5,0,0,0,.452-1.046c.77-2.407.07-5.266.935-7.705l.048-.134a2.5,2.5,0,0,1,1.908-1.8c.916-.07,1.72.7,2.6,1.046,1.844.715,3.838-.5,5.377-1.749s3.279-2.668,5.234-2.388c1.294.184,2.318,1.065,3.5,1.523a5.438,5.438,0,0,0,.833.238,11.677,11.677,0,0,0-22.26,6.789l-.064.162c-.461,1.17-.973,2.391-1.428,3.441l-2.226,2.019s-.954.776-2.36,1.975c-3.085,2.6-8.414,7.174-11.162,9.973C432.166,176.159,431.4,185.747,431.18,192.965Z" transform="translate(-326.542 -112.228)" opacity="0.1"/>
    <path id="Path_1449" data-name="Path 1449" d="M454.978,122.819c-.563-1.148-.843-2.43-1.517-3.517a8.214,8.214,0,0,0-4.484-3.18c-4.627-1.59-14.405-3.911-17.325.019a8.7,8.7,0,0,1-1.848,2.207,13.382,13.382,0,0,1-2,.9,7.658,7.658,0,0,0-3.689,4.738c-.636,1.959-.82,4.029-1.272,6.042a44.49,44.49,0,0,1-2.678,7.432c-1.224,2.862-2.525,5.823-4.888,7.845-3.225,2.76-3.95,6.659-6.929,9.68-3.546,3.6-3.431,9.521-1.59,14.224a3.917,3.917,0,0,1,.417,1.908,3.762,3.762,0,0,1-1.046,1.778l-1.937,2.188a10.889,10.889,0,0,0,11.9-5.492c.661-1.3,1.094-2.8,2.226-3.721a9.9,9.9,0,0,1,3.622-1.4c4.134-1.224,7.613-5.009,7.743-9.324.064-2.029-.569-4.058-.283-6.067a6.745,6.745,0,0,1,1.317-3.132c1.084-1.412,2.722-2.379,3.6-3.927,1.495-2.633.359-6.042,1.437-8.885a2.5,2.5,0,0,1,1.908-1.8c.916-.067,1.72.7,2.6,1.046,1.844.715,3.841-.5,5.377-1.749s3.279-2.668,5.237-2.388c1.294.184,2.318,1.065,3.5,1.523.884.34,2.674.636,3.447-.1C459.433,128.1,455.646,124.212,454.978,122.819Z" transform="translate(-308.134 -93.137)" fill="#591d4b"/>
    <path id="Path_1450" data-name="Path 1450" d="M415.083,176.43c.658-1.3,1.094-2.8,2.226-3.721a9.9,9.9,0,0,1,3.622-1.4c4.134-1.224,7.613-5.009,7.743-9.324.064-2.029-.572-4.061-.283-6.067a6.7,6.7,0,0,1,1.317-3.132c1.084-1.415,2.722-2.379,3.6-3.931,1.495-2.63.359-6.042,1.434-8.882a2.5,2.5,0,0,1,1.908-1.8c.913-.067,1.72.7,2.6,1.043,1.844.719,3.838-.5,5.377-1.746s3.279-2.668,5.238-2.391c1.294.184,2.318,1.065,3.5,1.526.884.337,2.671.636,3.447-.1,1.622-1.565-2.153-5.454-2.833-6.847a38.037,38.037,0,0,0-1.517-3.517c-.038-.06-.079-.118-.118-.175a6.238,6.238,0,0,1,1.3,1.472,38.018,38.018,0,0,1,1.514,3.517c.684,1.393,4.452,5.282,2.833,6.847-.773.744-2.544.439-3.444.1-1.193-.458-2.226-1.339-3.5-1.523-1.959-.277-3.7,1.145-5.237,2.391s-3.533,2.465-5.377,1.746c-.884-.343-1.657-1.113-2.6-1.046a2.457,2.457,0,0,0-1.908,1.8c-1.075,2.827.057,6.252-1.434,8.882-.881,1.552-2.515,2.515-3.6,3.93a6.735,6.735,0,0,0-1.32,3.132c-.286,2.007.35,4.039.286,6.067-.134,4.315-3.6,8.1-7.743,9.324a9.842,9.842,0,0,0-3.622,1.4c-1.129.925-1.565,2.42-2.226,3.721a10.885,10.885,0,0,1-11.9,5.489l.913-1.03A10.956,10.956,0,0,0,415.083,176.43Z" transform="translate(-308.25 -101.316)" opacity="0.1"/>
    <path id="Path_1451" data-name="Path 1451" d="M521.263,220.151a79.2,79.2,0,0,1,3.225,8.338c1.151-.445,2.2-3.307,2.2-3.307l-6.153-8.751C519.9,217.295,520.318,218.736,521.263,220.151Z" transform="translate(-387.276 -163.009)" opacity="0.1"/>
    <path id="Path_1452" data-name="Path 1452" d="M520.519,219.407a78.62,78.62,0,0,1,3.225,8.341c1.154-.445,2.2-3.31,2.2-3.31l-6.15-8.748C519.165,216.552,519.578,217.992,520.519,219.407Z" transform="translate(-386.771 -162.505)" fill="#dce7ff"/>
    <path id="Path_1453" data-name="Path 1453" d="M631.084,328.027l3.412-10.742a1.011,1.011,0,0,0-.655-1.272h0a1,1,0,0,0-1.272.655l-3.4,10.755.34,2.248Z" transform="translate(-461.57 -230.891)" fill="#be8b87"/>
    <path id="Path_1454" data-name="Path 1454" d="M634.175,316.355h0a1,1,0,0,0-1.272.652l-3.412,10.742.258,1.689-.248.258-.331-2.245,3.409-10.742a1,1,0,0,1,1.272-.655h0a1,1,0,0,1,.522.385.9.9,0,0,0-.2-.083Z" transform="translate(-461.57 -230.918)" fill="#fff" opacity="0.1"/>
    <path id="Path_1455" data-name="Path 1455" d="M528.958,304.167l-1.918-.607.28,1.844.06.4.56-.582Z" transform="translate(-359.44 -207.031)" fill="#efc8c4"/>
    <path id="Path_1456" data-name="Path 1456" d="M630.67,356.945a.47.47,0,0,0-.124-.1.175.175,0,0,0-.184,0,.586.586,0,0,0-.067.1.334.334,0,0,1-.245.165l.06.4Z" transform="translate(-462.17 -258.753)" fill="#727a9c"/>
    <path id="Path_1457" data-name="Path 1457" d="M634.26,332.09s-6.84-.041-5.228,2.862a6.194,6.194,0,0,0,4.134,3.263Z" transform="translate(-461.309 -241.889)" fill="#ffb0b1"/>
    <path id="Path_1458" data-name="Path 1458" d="M182.188,681.41s2.267,2.967-1.046,7.444-6.042,8.268-4.948,11.054c0,0,5.005-8.319,9.076-8.433S186.669,686.412,182.188,681.41Z" transform="translate(-152.474 -480.125)" fill="#6c63ff"/>
    <path id="Path_1459" data-name="Path 1459" d="M182.455,681.41a3.655,3.655,0,0,1,.464.929c3.972,4.668,6.09,9.025,2.271,9.136-3.558.1-7.826,6.462-8.85,8.068.035.124.076.248.121.366,0,0,5.005-8.319,9.076-8.433S186.936,686.412,182.455,681.41Z" transform="translate(-152.741 -480.125)" opacity="0.1"/>
    <path id="Path_1460" data-name="Path 1460" d="M207.712,691.862c0,1.043-.118,1.889-.261,1.889s-.261-.846-.261-1.889.146-.553.289-.553S207.712,690.813,207.712,691.862Z" transform="translate(-173.781 -486.796)" fill="#ffd037"/>
    <path id="Path_1461" data-name="Path 1461" d="M209.543,695.683c-.916.5-1.714.8-1.784.674s.617-.636,1.536-1.135.553-.137.636,0S210.463,695.184,209.543,695.683Z" transform="translate(-174.166 -489.37)" fill="#ffd037"/>
    <path id="Path_1462" data-name="Path 1462" d="M146.957,681.41s-2.267,2.967,1.046,7.444,6.042,8.268,4.945,11.054c0,0-5-8.319-9.076-8.433S142.476,686.412,146.957,681.41Z" transform="translate(-129.228 -480.125)" fill="#6c63ff"/>
    <path id="Path_1463" data-name="Path 1463" d="M146.954,681.41a3.656,3.656,0,0,0-.464.929c-3.972,4.668-6.09,9.025-2.271,9.136,3.558.1,7.826,6.462,8.85,8.068a3.524,3.524,0,0,1-.124.366s-5-8.319-9.076-8.433S142.473,686.412,146.954,681.41Z" transform="translate(-129.225 -480.125)" opacity="0.1"/>
    <path id="Path_1464" data-name="Path 1464" d="M144.62,691.862c0,1.043.118,1.889.261,1.889s.261-.846.261-1.889-.146-.553-.289-.553S144.62,690.813,144.62,691.862Z" transform="translate(-131.108 -486.796)" fill="#ffd037"/>
    <path id="Path_1465" data-name="Path 1465" d="M138.848,695.683c.916.5,1.714.8,1.784.674s-.617-.636-1.536-1.135-.553-.137-.636,0S137.929,695.184,138.848,695.683Z" transform="translate(-126.783 -489.37)" fill="#ffd037"/>
    <ellipse id="Ellipse_314" data-name="Ellipse 314" cx="23.723" cy="3.641" rx="23.723" ry="3.641" transform="translate(0 235.203)" fill="#6c63ff" opacity="0.1"/>
    <path id="Path_1466" data-name="Path 1466" d="M162.738,724.027l-.114.925-.159,1.31-.067.544-.159,1.31-.067.547-.159,1.307L160.2,744.852c-.162,1.329-2.334,2.363-4.951,2.363h-9.435c-2.62,0-4.77-1.034-4.948-2.363l-1.819-14.883-.159-1.307-.067-.547-.162-1.31-.064-.544-.159-1.31-.114-.925c-.092-.754,1.081-1.386,2.566-1.386h19.29C161.654,722.643,162.831,723.276,162.738,724.027Z" transform="translate(-126.807 -508.244)" fill="#65617d"/>
    <path id="Path_1467" data-name="Path 1467" d="M60.754,681.5l-.159,1.307H36.719L36.56,681.5Z" transform="translate(-24.934 -464.785)" fill="#9d9cb5"/>
    <path id="Path_1468" data-name="Path 1468" d="M61.012,687.33l-.159,1.31H37.432l-.162-1.31Z" transform="translate(-25.418 -468.761)" fill="#9d9cb5"/>
    <path id="Path_1469" data-name="Path 1469" d="M61.267,693.16l-.159,1.307H38.139l-.159-1.307Z" transform="translate(-25.902 -472.737)" fill="#9d9cb5"/>
  </g>
</svg>
